<?xml version="1.0" standalone="no"?>
<svg viewBox="0 0 200 200" xmlns="http://www.w3.org/2000/svg">
  <path fill="#6600CC" d="M21.6,-40.6C25.5,-31.1,24.6,-20.9,22.9,-13.7C21.3,-6.4,19,-2,20.9,4.9C22.9,11.8,29.1,21.2,27,23.1C24.9,25.1,14.5,19.4,5.2,25.8C-4,32.2,-12.1,50.5,-18.9,53.5C-25.8,56.5,-31.3,44.2,-33.8,33.6C-36.2,23,-35.6,14,-36.2,5.6C-36.8,-2.8,-38.6,-10.6,-38.6,-20.6C-38.6,-30.5,-36.9,-42.7,-30.2,-50.9C-23.5,-59.1,-11.7,-63.4,-1.5,-61.1C8.8,-58.9,17.7,-50.1,21.6,-40.6Z" transform="translate(100 100)" />
</svg>
